<svg width="42" height="44" viewBox="0 0 42 44" fill="none" xmlns="http://www.w3.org/2000/svg">
<path d="M24.6006 43.7684H16.6618C16.1325 43.7684 15.6739 43.586 15.2857 43.2213C14.8976 42.8566 14.6683 42.4007 14.5977 41.8535L13.9626 36.7655C13.5039 36.5831 13.0721 36.3643 12.667 36.1089C12.2605 35.8536 11.8632 35.5801 11.4751 35.2883L6.87065 37.2579C6.37668 37.4402 5.88271 37.4585 5.38874 37.3126C4.89477 37.1667 4.50666 36.8567 4.22439 36.3825L0.307928 29.3248C0.0256606 28.8507 -0.0625479 28.34 0.0433024 27.7929C0.149153 27.2458 0.413778 26.8082 0.837179 26.4799L4.80657 23.3614C4.77128 23.1061 4.75364 22.8595 4.75364 22.6217V21.1445C4.75364 20.9082 4.77128 20.6623 4.80657 20.407L0.837179 17.2885C0.413778 16.9603 0.149153 16.5226 0.0433024 15.9755C-0.0625479 15.4284 0.0256606 14.9177 0.307928 14.4436L4.22439 7.38592C4.47137 6.87529 4.85032 6.55578 5.36122 6.42739C5.87354 6.30046 6.37668 6.32818 6.87065 6.51055L11.4751 8.48013C11.8632 8.18834 12.269 7.91479 12.6924 7.65947C13.1158 7.40416 13.5392 7.18531 13.9626 7.00295L14.5977 1.91487C14.6683 1.36776 14.8976 0.911842 15.2857 0.547105C15.6739 0.182368 16.1325 0 16.6618 0H24.6006C25.1298 0 25.5885 0.182368 25.9766 0.547105C26.3647 0.911842 26.5941 1.36776 26.6646 1.91487L27.2997 7.00295C27.7584 7.18531 28.191 7.40416 28.5975 7.65947C29.0025 7.91479 29.3991 8.18834 29.7872 8.48013L34.3917 6.51055C34.8857 6.32818 35.3797 6.30995 35.8736 6.45584C36.3676 6.60174 36.7557 6.91176 37.038 7.38592L40.9544 14.4436C41.2367 14.9177 41.3249 15.4284 41.2191 15.9755C41.1132 16.5226 40.8486 16.9603 40.4252 17.2885L36.4558 20.407C36.4911 20.6623 36.5087 20.9082 36.5087 21.1445V22.6217C36.5087 22.8595 36.4734 23.1061 36.4029 23.3614L40.3723 26.4799C40.7957 26.8082 41.0603 27.2458 41.1661 27.7929C41.272 28.34 41.1838 28.8507 40.9015 29.3248L36.9851 36.3278C36.7028 36.8019 36.3062 37.1215 35.7953 37.2863C35.283 37.4497 34.7798 37.4402 34.2859 37.2579L29.7872 35.2883C29.3991 35.5801 28.9934 35.8536 28.57 36.1089C28.1466 36.3643 27.7232 36.5831 27.2997 36.7655L26.6646 41.8535C26.5941 42.4007 26.3647 42.8566 25.9766 43.2213C25.5885 43.586 25.1298 43.7684 24.6006 43.7684ZM20.737 29.5437C22.7835 29.5437 24.53 28.796 25.9766 27.3006C27.4232 25.8051 28.1466 23.9997 28.1466 21.8842C28.1466 19.7687 27.4232 17.9633 25.9766 16.4679C24.53 14.9724 22.7835 14.2247 20.737 14.2247C18.6553 14.2247 16.8996 14.9724 15.4699 16.4679C14.0416 17.9633 13.3275 19.7687 13.3275 21.8842C13.3275 23.9997 14.0416 25.8051 15.4699 27.3006C16.8996 28.796 18.6553 29.5437 20.737 29.5437Z" fill="#8B939B"/>
</svg>
