<svg width="43" height="45" viewBox="0 0 43 45" fill="none" xmlns="http://www.w3.org/2000/svg">
<path d="M9.66153 39.1789C8.70215 39.1789 7.88085 38.8181 7.19765 38.0966C6.51445 37.375 6.17285 36.5076 6.17285 35.4943V12.5113C6.17285 12.0815 6.23826 11.6669 6.36909 11.2678C6.49992 10.8686 6.69615 10.5001 6.95781 10.1624L9.13823 7.35283C9.45803 6.92296 9.85777 6.59288 10.3375 6.36259C10.8172 6.1323 11.3187 6.01715 11.842 6.01715H31.9019C32.4252 6.01715 32.9267 6.1323 33.4064 6.36259C33.8861 6.59288 34.2858 6.92296 34.6056 7.35283L36.786 10.1624C37.0477 10.5001 37.2439 10.8686 37.3748 11.2678C37.5056 11.6669 37.571 12.0815 37.571 12.5113V35.4943C37.571 36.5076 37.2294 37.375 36.5462 38.0966C35.863 38.8181 35.0417 39.1789 34.0823 39.1789H9.66153ZM10.3593 11.5441H33.3846L31.9019 9.70179H11.842L10.3593 11.5441ZM28.8493 15.2288H14.8946V26.9735C14.8946 27.6798 15.1707 28.2094 15.7231 28.5625C16.2755 28.9157 16.8424 28.9387 17.4239 28.6316L21.8719 26.2827L26.32 28.6316C26.9014 28.9387 27.4684 28.9157 28.0207 28.5625C28.5731 28.2094 28.8493 27.6798 28.8493 26.9735V15.2288Z" fill="#8B9095"/>
</svg>
